<svg class="main-svg" xmlns="http://www.w3.org/2000/svg" xmlns:xlink="http://www.w3.org/1999/xlink" width="800" height="600" style="" viewBox="0 0 800 600"><rect x="0" y="0" width="800" height="600" style="fill: rgb(0, 0, 0); fill-opacity: 0;"/><defs id="defs-e98ffd"><g class="clips"/><g class="gradients"/><g class="patterns"/></defs><g class="bglayer"/><g class="layer-below"><g class="imagelayer"/><g class="shapelayer"/></g><g class="cartesianlayer"/><g class="polarlayer"/><g class="smithlayer"/><g class="ternarylayer"/><g class="geolayer"/><g class="funnelarealayer"/><g class="pielayer"><g class="trace" stroke-linejoin="round" style="opacity: 1;"><g class="slice"><path class="surface" d="M402.6904282949302,372.94252612971485a63,63 0 0 0 -2.690428294930213,-125.94252612971486l0,-147a210,210 0 0 1 8.968094316434044,419.8084204323829Z" style="pointer-events: none; fill: rgb(0, 0, 255); fill-opacity: 1; stroke-width: 0; stroke: rgb(68, 68, 68); stroke-opacity: 1;"/><g class="slicetext"><text data-notex="1" class="slicetext" transform="translate(536.468864769337,303.78001687718336)" text-anchor="middle" x="0" y="0" style="font-family: 'Open Sans', verdana, arial, sans-serif; font-size: 12px; fill: rgb(255, 255, 255); fill-opacity: 1; white-space: pre;"><tspan class="line" dy="0em" x="0" y="0">Nourriture</tspan><tspan class="line" dy="1.3em" x="0" y="0">49.3%</tspan></text></g></g><g class="slice"><path class="surface" d="M400,247a63,63 0 0 0 -62.18149626661907,52.87767210349127l-145.09015795544448,-23.618765091853685a210,210 0 0 1 207.27165422206357,-176.25890701163758Z" style="pointer-events: none; fill: rgb(255, 0, 0); fill-opacity: 1; stroke-width: 0; stroke: rgb(68, 68, 68); stroke-opacity: 1;"/><g class="slicetext"><text data-notex="1" class="slicetext" transform="translate(311.93264961505895,202.70990853532703)" text-anchor="middle" x="0" y="0" style="font-family: 'Open Sans', verdana, arial, sans-serif; font-size: 12px; fill: rgb(255, 255, 255); fill-opacity: 1; white-space: pre;"><tspan class="line" dy="0em" x="0" y="0">Traitement</tspan><tspan class="line" dy="1.3em" x="0" y="0">22.4%</tspan></text></g></g><g class="slice"><path class="surface" d="M337.8185037333809,299.87767210349125a63,63 0 0 0 12.76965435688186,49.205187043289904l-115.29429778938682,91.19333800915608a210,210 0 0 1 -42.56551452293954,-164.0172901442997Z" style="pointer-events: none; fill: rgb(255, 255, 0); fill-opacity: 1; stroke-width: 0; stroke: rgb(68, 68, 68); stroke-opacity: 1;"/><g class="slicetext"><text data-notex="1" class="slicetext" transform="translate(267.3875220291,341.001226660212)rotate(-14.548369950589858)" text-anchor="middle" x="0" y="0" style="font-family: 'Open Sans', verdana, arial, sans-serif; font-size: 12px; fill: rgb(68, 68, 68); fill-opacity: 1; white-space: pre;"><tspan class="line" dy="0em" x="0" y="0">Aliments pour animaux</tspan><tspan class="line" dy="1.3em" x="0" y="0">13.2%</tspan></text></g></g><g class="slice"><path class="surface" d="M350.58815809026277,349.0828591467812a63,63 0 0 0 27.93911781343294,20.14485497324876l-50.103022891376625,138.19799961340317a210,210 0 0 1 -93.13039271144314,-67.14951657749586Z" style="pointer-events: none; fill: rgb(163, 163, 163); fill-opacity: 1; stroke-width: 0; stroke: rgb(68, 68, 68); stroke-opacity: 1;"/><g class="slicetext"><text data-notex="1" class="slicetext" transform="translate(316.26612520126923,420.4809621838725)rotate(-54.20738296423917)" text-anchor="middle" x="0" y="0" style="font-family: 'Open Sans', verdana, arial, sans-serif; font-size: 12px; fill: rgb(68, 68, 68); fill-opacity: 1; white-space: pre;"><tspan class="line" dy="0em" x="0" y="0">Autres Utilisations</tspan><tspan class="line" dy="1.3em" x="0" y="0">8.81%</tspan></text></g></g><g class="slice"><path class="surface" d="M378.52727590369574,369.22771412002993a63,63 0 0 0 17.937178219536246,3.6730006243453346l-8.24960704579205,146.7683344035423a210,210 0 0 1 -59.79059406512083,-12.243335414484449Z" style="pointer-events: none; fill: rgb(187, 187, 187); fill-opacity: 1; stroke-width: 0; stroke: rgb(68, 68, 68); stroke-opacity: 1;"/><g class="slicetext"><text data-notex="1" class="slicetext" transform="translate(363.1783128119675,486.32405801080426)" text-anchor="middle" x="0" y="0" style="font-family: 'Open Sans', verdana, arial, sans-serif; font-size: 12px; fill: rgb(68, 68, 68); fill-opacity: 1; white-space: pre;"><tspan class="line" dy="0em" x="0" y="0">Pertes</tspan><tspan class="line" dy="1.3em" x="0" y="0">4.64%</tspan></text></g></g><g class="slice"><path class="surface" d="M396.464454123232,372.90071474437525a63,63 0 0 0 6.225974171698192,0.04181138533960222l6.277666021503729,146.86589430266804a210,210 0 0 1 -20.75324723899397,-0.13937128446534075Z" style="pointer-events: none; fill: rgb(204, 204, 204); fill-opacity: 1; stroke-width: 0; stroke: rgb(68, 68, 68); stroke-opacity: 1;"/><g class="slicetext"><text data-notex="1" class="slicetext" transform="translate(359.46865418518297,531.9945744755869)" text-anchor="middle" x="0" y="0" style="font-family: 'Open Sans', verdana, arial, sans-serif; font-size: 12px; fill: rgb(255, 255, 255); fill-opacity: 1; white-space: pre;"><tspan class="line" dy="0em" x="0" y="0">Semences</tspan><tspan class="line" dy="1.3em" x="0" y="0">1.57%</tspan></text></g></g></g></g><g class="iciclelayer"/><g class="treemaplayer"/><g class="sunburstlayer"/><g class="glimages"/><defs id="topdefs-e98ffd"><g class="clips"/></defs><g class="layer-above"><g class="imagelayer"/><g class="shapelayer"/></g><g class="infolayer"><g class="g-gtitle"><text class="gtitle" x="40" y="50" text-anchor="start" dy="0em" style="font-family: 'Open Sans', verdana, arial, sans-serif; font-size: 17px; fill: rgb(255, 255, 255); opacity: 1; white-space: pre;">Breakdown of food availability in 2017</text></g><g class="annotation" data-index="0" style="opacity: 1;"><g class="annotation-text-g" transform="rotate(0,400,310)"><g class="cursor-pointer" transform="translate(352,293)"><rect class="bg" x="0.5" y="0.5" width="95" height="34" style="stroke-width: 1px; stroke: rgb(0, 0, 0); stroke-opacity: 0; fill: rgb(0, 0, 0); fill-opacity: 0;"/><text class="annotation-text" text-anchor="middle" x="48.421875" y="14" style="font-family: 'Open Sans', verdana, arial, sans-serif; font-size: 12px; fill: rgb(255, 255, 255); fill-opacity: 1; white-space: pre;"><tspan class="line" dy="0em" x="48.421875" y="14">Total Dispo Ali:</tspan><tspan class="line" dy="1.3em" x="48.421875" y="14"> 9,734 Billion</tspan></text></g></g></g></g></svg>