<svg class="main-svg" xmlns="http://www.w3.org/2000/svg" xmlns:xlink="http://www.w3.org/1999/xlink" width="1500" height="600" style="" viewBox="0 0 1500 600"><rect x="0" y="0" width="1500" height="600" style="fill: rgb(0, 0, 0); fill-opacity: 0;"/><defs id="defs-908f99"><g class="clips"><clipPath id="clip908f99xyplot" class="plotclip"><rect width="1280" height="410"/></clipPath><clipPath class="axesclip" id="clip908f99x"><rect x="200" y="0" width="1280" height="600"/></clipPath><clipPath class="axesclip" id="clip908f99y"><rect x="0" y="110" width="1500" height="410"/></clipPath><clipPath class="axesclip" id="clip908f99xy"><rect x="200" y="110" width="1280" height="410"/></clipPath></g><g class="gradients"/><g class="patterns"/></defs><g class="bglayer"><rect class="bg" x="200" y="110" width="1280" height="410" style="fill: rgb(0, 0, 0); fill-opacity: 0; stroke-width: 0;"/></g><g class="layer-below"><g class="imagelayer"/><g class="shapelayer"/></g><g class="cartesianlayer"><g class="subplot xy"><g class="layer-subplot"><g class="shapelayer"/><g class="imagelayer"/></g><g class="minor-gridlayer"><g class="x"/><g class="y"/></g><g class="gridlayer"><g class="x"/><g class="y"/></g><g class="zerolinelayer"/><path class="xlines-below"/><path class="ylines-below"/><g class="overlines-below"/><g class="xaxislayer-below"/><g class="yaxislayer-below"/><g class="overaxes-below"/><g class="plot" transform="translate(200,110)" clip-path="url(#clip908f99xyplot)"><g class="scatterlayer mlayer"><g class="trace scatter traced87208" style="stroke-miterlimit: 2; opacity: 1;"><g class="fills"/><g class="errorbars"/><g class="lines"><path class="js-line" d="M71.5,71.88L450.5,20.5L829.5,94.34L1208.5,330.79" style="vector-effect: none; fill: none; stroke: rgb(163, 163, 163); stroke-opacity: 1; stroke-width: 2px; opacity: 1;"/></g><g class="points"/><g class="text"/></g><g class="trace scatter trace2ff675" style="stroke-miterlimit: 2; opacity: 1;"><g class="fills"/><g class="errorbars"/><g class="lines"/><g class="points"><path class="point" transform="translate(71.5,71.88)" d="M4,0A4,4 0 1,1 0,-4A4,4 0 0,1 4,0Z" style="opacity: 1; stroke-width: 0px; fill: rgb(163, 163, 163); fill-opacity: 1;"/><path class="point" transform="translate(1208.5,330.79)" d="M4,0A4,4 0 1,1 0,-4A4,4 0 0,1 4,0Z" style="opacity: 1; stroke-width: 0px; fill: rgb(163, 163, 163); fill-opacity: 1;"/></g><g class="text"/></g><g class="trace scatter trace27975d" style="stroke-miterlimit: 2; opacity: 1;"><g class="fills"/><g class="errorbars"/><g class="lines"><path class="js-line" d="M71.5,207.64L450.5,212.48L829.5,389.5" style="vector-effect: none; fill: none; stroke: rgb(163, 163, 163); stroke-opacity: 1; stroke-width: 2px; opacity: 1;"/></g><g class="points"/><g class="text"/></g><g class="trace scatter trace57de37" style="stroke-miterlimit: 2; opacity: 1;"><g class="fills"/><g class="errorbars"/><g class="lines"/><g class="points"><path class="point" transform="translate(71.5,207.64)" d="M4,0A4,4 0 1,1 0,-4A4,4 0 0,1 4,0Z" style="opacity: 1; stroke-width: 0px; fill: rgb(163, 163, 163); fill-opacity: 1;"/></g><g class="text"/></g><g class="trace scatter trace02222d" style="stroke-miterlimit: 2; opacity: 1;"><g class="fills"/><g class="errorbars"/><g class="lines"><path class="js-line" d="M71.5,285.54L450.5,137.6L829.5,371.66" style="vector-effect: none; fill: none; stroke: rgb(163, 163, 163); stroke-opacity: 1; stroke-width: 2px; opacity: 1;"/></g><g class="points"/><g class="text"/></g><g class="trace scatter trace1e6660" style="stroke-miterlimit: 2; opacity: 1;"><g class="fills"/><g class="errorbars"/><g class="lines"/><g class="points"><path class="point" transform="translate(71.5,285.54)" d="M4,0A4,4 0 1,1 0,-4A4,4 0 0,1 4,0Z" style="opacity: 1; stroke-width: 0px; fill: rgb(163, 163, 163); fill-opacity: 1;"/></g><g class="text"/></g><g class="trace scatter trace853cc8" style="stroke-miterlimit: 2; opacity: 1;"><g class="fills"/><g class="errorbars"/><g class="lines"><path class="js-line" d="M71.5,245.72L450.5,339.35L829.5,183.16L1208.5,128.89" style="vector-effect: none; fill: none; stroke: rgb(0, 0, 255); stroke-opacity: 1; stroke-width: 4px; opacity: 1;"/></g><g class="points"/><g class="text"/></g><g class="trace scatter tracebc15ec" style="stroke-miterlimit: 2; opacity: 1;"><g class="fills"/><g class="errorbars"/><g class="lines"/><g class="points"><path class="point" transform="translate(71.5,245.72)" d="M6,0A6,6 0 1,1 0,-6A6,6 0 0,1 6,0Z" style="opacity: 1; stroke-width: 0px; fill: rgb(0, 0, 255); fill-opacity: 1;"/><path class="point" transform="translate(1208.5,128.89)" d="M6,0A6,6 0 1,1 0,-6A6,6 0 0,1 6,0Z" style="opacity: 1; stroke-width: 0px; fill: rgb(0, 0, 255); fill-opacity: 1;"/></g><g class="text"/></g><g class="trace scatter trace9344e5" style="stroke-miterlimit: 2; opacity: 1;"><g class="fills"/><g class="errorbars"/><g class="lines"><path class="js-line" d="M71.5,55.68L450.5,58.46L829.5,281.51" style="vector-effect: none; fill: none; stroke: rgb(163, 163, 163); stroke-opacity: 1; stroke-width: 2px; opacity: 1;"/></g><g class="points"/><g class="text"/></g><g class="trace scatter trace860b77" style="stroke-miterlimit: 2; opacity: 1;"><g class="fills"/><g class="errorbars"/><g class="lines"/><g class="points"><path class="point" transform="translate(71.5,55.68)" d="M4,0A4,4 0 1,1 0,-4A4,4 0 0,1 4,0Z" style="opacity: 1; stroke-width: 0px; fill: rgb(163, 163, 163); fill-opacity: 1;"/></g><g class="text"/></g></g></g><g class="overplot"/><path class="xlines-above crisp" d="M200,521H1480" style="fill: none; stroke-width: 2px; stroke: rgb(204, 204, 204); stroke-opacity: 1;"/><path class="ylines-above crisp" d="M0,0" style="fill: none;"/><g class="overlines-above"/><g class="xaxislayer-above"><path class="xtick ticks crisp" d="M0,522v5" transform="translate(271.5,0)" style="stroke: rgb(68, 68, 68); stroke-opacity: 1; stroke-width: 1px;"/><path class="xtick ticks crisp" d="M0,522v5" transform="translate(650.5,0)" style="stroke: rgb(68, 68, 68); stroke-opacity: 1; stroke-width: 1px;"/><path class="xtick ticks crisp" d="M0,522v5" transform="translate(1029.5,0)" style="stroke: rgb(68, 68, 68); stroke-opacity: 1; stroke-width: 1px;"/><path class="xtick ticks crisp" d="M0,522v5" transform="translate(1408.5,0)" style="stroke: rgb(68, 68, 68); stroke-opacity: 1; stroke-width: 1px;"/><g class="xtick"><text text-anchor="middle" x="0" y="543.8" transform="translate(271.5,0)" style="font-family: Arial; font-size: 14px; fill: rgb(255, 255, 255); fill-opacity: 1; white-space: pre; opacity: 1;">2013</text></g><g class="xtick"><text text-anchor="middle" x="0" y="543.8" style="font-family: Arial; font-size: 14px; fill: rgb(255, 255, 255); fill-opacity: 1; white-space: pre; opacity: 1;" transform="translate(650.5,0)">2014</text></g><g class="xtick"><text text-anchor="middle" x="0" y="543.8" style="font-family: Arial; font-size: 14px; fill: rgb(255, 255, 255); fill-opacity: 1; white-space: pre; opacity: 1;" transform="translate(1029.5,0)">2015</text></g><g class="xtick"><text text-anchor="middle" x="0" y="543.8" style="font-family: Arial; font-size: 14px; fill: rgb(255, 255, 255); fill-opacity: 1; white-space: pre; opacity: 1;" transform="translate(1408.5,0)">2016</text></g></g><g class="yaxislayer-above"/><g class="overaxes-above"/></g></g><g class="polarlayer"/><g class="smithlayer"/><g class="ternarylayer"/><g class="geolayer"/><g class="funnelarealayer"/><g class="pielayer"/><g class="iciclelayer"/><g class="treemaplayer"/><g class="sunburstlayer"/><g class="glimages"/><defs id="topdefs-908f99"><g class="clips"/></defs><g class="layer-above"><g class="imagelayer"/><g class="shapelayer"/></g><g class="infolayer"><g class="g-gtitle"/><g class="g-xtitle"/><g class="g-ytitle"/><g class="annotation" data-index="0" style="opacity: 1;"><g class="annotation-text-g" transform="rotate(0,144,181.88)"><g class="cursor-pointer" transform="translate(24,171)"><rect class="bg" x="0.5" y="0.5" width="239" height="21" style="stroke-width: 1px; stroke: rgb(0, 0, 0); stroke-opacity: 0; fill: rgb(0, 0, 0); fill-opacity: 0;"/><text class="annotation-text" text-anchor="middle" x="119.859375" y="16.5" style="font-family: Arial; font-size: 16px; fill: rgb(255, 255, 255); fill-opacity: 1; white-space: pre;">République arabe syrienne 563M</text></g></g></g><g class="annotation" data-index="1" style="opacity: 1;"><g class="annotation-text-g" transform="rotate(0,1430,440.79)"><g class="cursor-pointer" transform="translate(1409,430)"><rect class="bg" x="0.5" y="0.5" width="42" height="21" style="stroke-width: 1px; stroke: rgb(0, 0, 0); stroke-opacity: 0; fill: rgb(0, 0, 0); fill-opacity: 0;"/><text class="annotation-text" text-anchor="middle" x="21.421875" y="16.5" style="font-family: Arial; font-size: 16px; fill: rgb(255, 255, 255); fill-opacity: 1; white-space: pre;">118M</text></g></g></g><g class="annotation" data-index="2" style="opacity: 1;"><g class="annotation-text-g" transform="rotate(0,212,317.64)"><g class="cursor-pointer" transform="translate(160,307)"><rect class="bg" x="0.5" y="0.5" width="103" height="21" style="stroke-width: 1px; stroke: rgb(0, 0, 0); stroke-opacity: 0; fill: rgb(0, 0, 0); fill-opacity: 0;"/><text class="annotation-text" text-anchor="middle" x="51.828125" y="16.5" style="font-family: Arial; font-size: 16px; fill: rgb(255, 255, 255); fill-opacity: 1; white-space: pre;">Soudan 330M</text></g></g></g><g class="annotation" data-index="3" style="opacity: 1;"><g class="annotation-text-g" transform="rotate(0,1047,499.5)"><g class="cursor-pointer" transform="translate(1030,489)"><rect class="bg" x="0.5" y="0.5" width="34" height="21" style="stroke-width: 1px; stroke: rgb(0, 0, 0); stroke-opacity: 0; fill: rgb(0, 0, 0); fill-opacity: 0;"/><text class="annotation-text" text-anchor="middle" x="17.5625" y="16.5" style="font-family: Arial; font-size: 16px; fill: rgb(255, 255, 255); fill-opacity: 1; white-space: pre;">17M</text></g></g></g><g class="annotation" data-index="4" style="opacity: 1;"><g class="annotation-text-g" transform="rotate(0,184.5,395.54)"><g class="cursor-pointer" transform="translate(105,385)"><rect class="bg" x="0.5" y="0.5" width="158" height="21" style="stroke-width: 1px; stroke: rgb(0, 0, 0); stroke-opacity: 0; fill: rgb(0, 0, 0); fill-opacity: 0;"/><text class="annotation-text" text-anchor="middle" x="79.40625" y="16.5" style="font-family: Arial; font-size: 16px; fill: rgb(255, 255, 255); fill-opacity: 1; white-space: pre;">Soudan du Sud 196M</text></g></g></g><g class="annotation" data-index="5" style="opacity: 1;"><g class="annotation-text-g" transform="rotate(0,1047,481.66)"><g class="cursor-pointer" transform="translate(1030,471)"><rect class="bg" x="0.5" y="0.5" width="34" height="21" style="stroke-width: 1px; stroke: rgb(0, 0, 0); stroke-opacity: 0; fill: rgb(0, 0, 0); fill-opacity: 0;"/><text class="annotation-text" text-anchor="middle" x="17.5625" y="16.5" style="font-family: Arial; font-size: 16px; fill: rgb(255, 255, 255); fill-opacity: 1; white-space: pre;">48M</text></g></g></g><g class="annotation" data-index="6" style="opacity: 1;"><g class="annotation-text-g" transform="rotate(0,214.5,355.72)"><g class="cursor-pointer" transform="translate(165,345)"><rect class="bg" x="0.5" y="0.5" width="98" height="21" style="stroke-width: 1px; stroke: rgb(0, 0, 0); stroke-opacity: 0; fill: rgb(0, 0, 0); fill-opacity: 0;"/><text class="annotation-text" text-anchor="middle" x="49.59375" y="16.5" style="font-family: Arial; font-size: 16px; fill: rgb(255, 255, 255); fill-opacity: 1; white-space: pre;">Yémen 264M</text></g></g></g><g class="annotation" data-index="7" style="opacity: 1;"><g class="annotation-text-g" transform="rotate(0,1430.5,238.89)"><g class="cursor-pointer" transform="translate(1409,228)"><rect class="bg" x="0.5" y="0.5" width="43" height="21" style="stroke-width: 1px; stroke: rgb(0, 0, 0); stroke-opacity: 0; fill: rgb(0, 0, 0); fill-opacity: 0;"/><text class="annotation-text" text-anchor="middle" x="22.015625" y="16.5" style="font-family: Arial; font-size: 16px; fill: rgb(255, 255, 255); fill-opacity: 1; white-space: pre;">465M</text></g></g></g><g class="annotation" data-index="8" style="opacity: 1;"><g class="annotation-text-g" transform="rotate(0,211,165.68)"><g class="cursor-pointer" transform="translate(158,155)"><rect class="bg" x="0.5" y="0.5" width="105" height="21" style="stroke-width: 1px; stroke: rgb(0, 0, 0); stroke-opacity: 0; fill: rgb(0, 0, 0); fill-opacity: 0;"/><text class="annotation-text" text-anchor="middle" x="53.15625" y="16.5" style="font-family: Arial; font-size: 16px; fill: rgb(255, 255, 255); fill-opacity: 1; white-space: pre;">Éthiopie 591M</text></g></g></g><g class="annotation" data-index="9" style="opacity: 1;"><g class="annotation-text-g" transform="rotate(0,1051.5,391.51)"><g class="cursor-pointer" transform="translate(1030,381)"><rect class="bg" x="0.5" y="0.5" width="43" height="21" style="stroke-width: 1px; stroke: rgb(0, 0, 0); stroke-opacity: 0; fill: rgb(0, 0, 0); fill-opacity: 0;"/><text class="annotation-text" text-anchor="middle" x="22.015625" y="16.5" style="font-family: Arial; font-size: 16px; fill: rgb(255, 255, 255); fill-opacity: 1; white-space: pre;">203M</text></g></g></g><g class="annotation" data-index="10" style="opacity: 1;"><g class="annotation-text-g" transform="rotate(0,364,70.49999999999997)"><g class="cursor-pointer" transform="translate(200,51)"><rect class="bg" x="0.5" y="0.5" width="327" height="37" style="stroke-width: 1px; stroke: rgb(0, 0, 0); stroke-opacity: 0; fill: rgb(0, 0, 0); fill-opacity: 0;"/><text class="annotation-text" text-anchor="middle" x="164.046875" y="29" style="font-family: Arial; font-size: 30px; fill: rgb(255, 255, 255); fill-opacity: 1; white-space: pre;">Aid Received Over Time</text></g></g></g></g></svg>