<svg class="main-svg" xmlns="http://www.w3.org/2000/svg" xmlns:xlink="http://www.w3.org/1999/xlink" width="1500" height="600" style="" viewBox="0 0 1500 600"><rect x="0" y="0" width="1500" height="600" style="fill: rgb(0, 0, 0); fill-opacity: 0;"/><defs id="defs-c33320"><g class="clips"><clipPath id="clipc33320xyplot" class="plotclip"><rect width="1280" height="410"/></clipPath><clipPath class="axesclip" id="clipc33320x"><rect x="200" y="0" width="1280" height="600"/></clipPath><clipPath class="axesclip" id="clipc33320y"><rect x="0" y="110" width="1500" height="410"/></clipPath><clipPath class="axesclip" id="clipc33320xy"><rect x="200" y="110" width="1280" height="410"/></clipPath></g><g class="gradients"/><g class="patterns"/></defs><g class="bglayer"><rect class="bg" x="200" y="110" width="1280" height="410" style="fill: rgb(0, 0, 0); fill-opacity: 0; stroke-width: 0;"/></g><g class="layer-below"><g class="imagelayer"/><g class="shapelayer"/></g><g class="cartesianlayer"><g class="subplot xy"><g class="layer-subplot"><g class="shapelayer"/><g class="imagelayer"/></g><g class="minor-gridlayer"><g class="x"/><g class="y"/></g><g class="gridlayer"><g class="x"/><g class="y"/></g><g class="zerolinelayer"/><g class="layer-between"><g class="shapelayer"/><g class="imagelayer"/></g><path class="xlines-below"/><path class="ylines-below"/><g class="overlines-below"/><g class="xaxislayer-below"/><g class="yaxislayer-below"/><g class="overaxes-below"/><g class="plot" transform="translate(200,110)" clip-path="url(#clipc33320xyplot)"><g class="scatterlayer mlayer"><g class="trace scatter trace42b382" style="stroke-miterlimit: 2; opacity: 1;"><g class="fills"/><g class="errorbars"/><g class="lines"><path class="js-line" d="M71.5,71.18L450.5,20.5L829.5,93.34L1208.5,326.59" style="vector-effect: none; fill: none; stroke: rgb(163, 163, 163); stroke-opacity: 1; stroke-width: 2px; opacity: 1;"/></g><g class="points"/><g class="text"/></g><g class="trace scatter tracecac09e" style="stroke-miterlimit: 2; opacity: 1;"><g class="fills"/><g class="errorbars"/><g class="lines"><path class="js-line" d="M71.5,205.1L450.5,209.88L829.5,384.5" style="vector-effect: none; fill: none; stroke: rgb(163, 163, 163); stroke-opacity: 1; stroke-width: 2px; opacity: 1;"/></g><g class="points"/><g class="text"/></g><g class="trace scatter trace9d60ca" style="stroke-miterlimit: 2; opacity: 1;"><g class="fills"/><g class="errorbars"/><g class="lines"><path class="js-line" d="M71.5,281.95L450.5,136.01L829.5,366.9" style="vector-effect: none; fill: none; stroke: rgb(163, 163, 163); stroke-opacity: 1; stroke-width: 2px; opacity: 1;"/></g><g class="points"/><g class="text"/></g><g class="trace scatter trace4bce78" style="stroke-miterlimit: 2; opacity: 1;"><g class="fills"/><g class="errorbars"/><g class="lines"><path class="js-line" d="M71.5,242.67L450.5,335.03L829.5,180.95L1208.5,127.42" style="vector-effect: none; fill: none; stroke: rgb(0, 0, 255); stroke-opacity: 1; stroke-width: 4px; opacity: 1;"/></g><g class="points"/><g class="text"/></g><g class="trace scatter trace37a8d5" style="stroke-miterlimit: 2; opacity: 1;"><g class="fills"/><g class="errorbars"/><g class="lines"><path class="js-line" d="M71.5,55.2L450.5,57.95L829.5,277.97" style="vector-effect: none; fill: none; stroke: rgb(163, 163, 163); stroke-opacity: 1; stroke-width: 2px; opacity: 1;"/></g><g class="points"/><g class="text"/></g><g class="trace scatter tracee5729d" style="stroke-miterlimit: 2; opacity: 1;"><g class="fills"/><g class="errorbars"/><g class="lines"/><g class="points"><path class="point" transform="translate(71.5,71.18)" d="M4,0A4,4 0 1,1 0,-4A4,4 0 0,1 4,0Z" style="opacity: 1; stroke-width: 0px; fill: rgb(163, 163, 163); fill-opacity: 1;"/><path class="point" transform="translate(1208.5,326.59)" d="M4,0A4,4 0 1,1 0,-4A4,4 0 0,1 4,0Z" style="opacity: 1; stroke-width: 0px; fill: rgb(163, 163, 163); fill-opacity: 1;"/></g><g class="text"/></g><g class="trace scatter trace382cf3" style="stroke-miterlimit: 2; opacity: 1;"><g class="fills"/><g class="errorbars"/><g class="lines"/><g class="points"><path class="point" transform="translate(71.5,205.1)" d="M4,0A4,4 0 1,1 0,-4A4,4 0 0,1 4,0Z" style="opacity: 1; stroke-width: 0px; fill: rgb(163, 163, 163); fill-opacity: 1;"/><path class="point" transform="translate(829.5,384.5)" d="M4,0A4,4 0 1,1 0,-4A4,4 0 0,1 4,0Z" style="opacity: 1; stroke-width: 0px; fill: rgb(163, 163, 163); fill-opacity: 1;"/></g><g class="text"/></g><g class="trace scatter tracef454b8" style="stroke-miterlimit: 2; opacity: 1;"><g class="fills"/><g class="errorbars"/><g class="lines"/><g class="points"><path class="point" transform="translate(71.5,281.95)" d="M4,0A4,4 0 1,1 0,-4A4,4 0 0,1 4,0Z" style="opacity: 1; stroke-width: 0px; fill: rgb(163, 163, 163); fill-opacity: 1;"/><path class="point" transform="translate(829.5,366.9)" d="M4,0A4,4 0 1,1 0,-4A4,4 0 0,1 4,0Z" style="opacity: 1; stroke-width: 0px; fill: rgb(163, 163, 163); fill-opacity: 1;"/></g><g class="text"/></g><g class="trace scatter trace821259" style="stroke-miterlimit: 2; opacity: 1;"><g class="fills"/><g class="errorbars"/><g class="lines"/><g class="points"><path class="point" transform="translate(71.5,242.67)" d="M6,0A6,6 0 1,1 0,-6A6,6 0 0,1 6,0Z" style="opacity: 1; stroke-width: 0px; fill: rgb(0, 0, 255); fill-opacity: 1;"/><path class="point" transform="translate(1208.5,127.42)" d="M6,0A6,6 0 1,1 0,-6A6,6 0 0,1 6,0Z" style="opacity: 1; stroke-width: 0px; fill: rgb(0, 0, 255); fill-opacity: 1;"/></g><g class="text"/></g><g class="trace scatter trace3d7ec4" style="stroke-miterlimit: 2; opacity: 1;"><g class="fills"/><g class="errorbars"/><g class="lines"/><g class="points"><path class="point" transform="translate(71.5,55.2)" d="M4,0A4,4 0 1,1 0,-4A4,4 0 0,1 4,0Z" style="opacity: 1; stroke-width: 0px; fill: rgb(163, 163, 163); fill-opacity: 1;"/><path class="point" transform="translate(829.5,277.97)" d="M4,0A4,4 0 1,1 0,-4A4,4 0 0,1 4,0Z" style="opacity: 1; stroke-width: 0px; fill: rgb(163, 163, 163); fill-opacity: 1;"/></g><g class="text"/></g></g></g><g class="overplot"/><path class="xlines-above crisp" d="M200,521H1480" style="fill: none; stroke-width: 2px; stroke: rgb(204, 204, 204); stroke-opacity: 1;"/><path class="ylines-above crisp" d="M0,0" style="fill: none;"/><g class="overlines-above"/><g class="xaxislayer-above"><path class="xtick ticks crisp" d="M0,522v5" transform="translate(271.5,0)" style="stroke: rgb(68, 68, 68); stroke-opacity: 1; stroke-width: 1px;"/><path class="xtick ticks crisp" d="M0,522v5" transform="translate(650.5,0)" style="stroke: rgb(68, 68, 68); stroke-opacity: 1; stroke-width: 1px;"/><path class="xtick ticks crisp" d="M0,522v5" transform="translate(1029.5,0)" style="stroke: rgb(68, 68, 68); stroke-opacity: 1; stroke-width: 1px;"/><path class="xtick ticks crisp" d="M0,522v5" transform="translate(1408.5,0)" style="stroke: rgb(68, 68, 68); stroke-opacity: 1; stroke-width: 1px;"/><g class="xtick"><text text-anchor="middle" x="0" y="543.8" transform="translate(271.5,0)" style="font-family: Arial; font-size: 14px; fill: rgb(255, 255, 255); fill-opacity: 1; white-space: pre; opacity: 1;">2013</text></g><g class="xtick"><text text-anchor="middle" x="0" y="543.8" style="font-family: Arial; font-size: 14px; fill: rgb(255, 255, 255); fill-opacity: 1; white-space: pre; opacity: 1;" transform="translate(650.5,0)">2014</text></g><g class="xtick"><text text-anchor="middle" x="0" y="543.8" style="font-family: Arial; font-size: 14px; fill: rgb(255, 255, 255); fill-opacity: 1; white-space: pre; opacity: 1;" transform="translate(1029.5,0)">2015</text></g><g class="xtick"><text text-anchor="middle" x="0" y="543.8" style="font-family: Arial; font-size: 14px; fill: rgb(255, 255, 255); fill-opacity: 1; white-space: pre; opacity: 1;" transform="translate(1408.5,0)">2016</text></g></g><g class="yaxislayer-above"/><g class="overaxes-above"/></g></g><g class="polarlayer"/><g class="smithlayer"/><g class="ternarylayer"/><g class="geolayer"/><g class="funnelarealayer"/><g class="pielayer"/><g class="iciclelayer"/><g class="treemaplayer"/><g class="sunburstlayer"/><g class="glimages"/><defs id="topdefs-c33320"><g class="clips"/></defs><g class="layer-above"><g class="imagelayer"/><g class="shapelayer"/></g><g class="infolayer"><g class="g-gtitle"/><g class="g-xtitle"/><g class="g-ytitle"/><g class="annotation" data-index="0" style="opacity: 1;"><g class="annotation-text-g" transform="rotate(0,144,181.18)"><g class="cursor-pointer" transform="translate(24,171)"><rect class="bg" x="0.5" y="0.5" width="239" height="20" style="stroke-width: 1px; stroke: rgb(0, 0, 0); stroke-opacity: 0; fill: rgb(0, 0, 0); fill-opacity: 0;"/><text class="annotation-text" text-anchor="middle" x="119.859375" y="16" style="font-family: Arial; font-size: 16px; fill: rgb(255, 255, 255); fill-opacity: 1; white-space: pre;">République arabe syrienne 563M</text></g></g></g><g class="annotation" data-index="1" style="opacity: 1;"><g class="annotation-text-g" transform="rotate(0,1430,436.59)"><g class="cursor-pointer" transform="translate(1409,426)"><rect class="bg" x="0.5" y="0.5" width="42" height="20" style="stroke-width: 1px; stroke: rgb(0, 0, 0); stroke-opacity: 0; fill: rgb(0, 0, 0); fill-opacity: 0;"/><text class="annotation-text" text-anchor="middle" x="21.421875" y="16" style="font-family: Arial; font-size: 16px; fill: rgb(255, 255, 255); fill-opacity: 1; white-space: pre;">118M</text></g></g></g><g class="annotation" data-index="2" style="opacity: 1;"><g class="annotation-text-g" transform="rotate(0,212,315.1)"><g class="cursor-pointer" transform="translate(160,305)"><rect class="bg" x="0.5" y="0.5" width="103" height="20" style="stroke-width: 1px; stroke: rgb(0, 0, 0); stroke-opacity: 0; fill: rgb(0, 0, 0); fill-opacity: 0;"/><text class="annotation-text" text-anchor="middle" x="51.828125" y="16" style="font-family: Arial; font-size: 16px; fill: rgb(255, 255, 255); fill-opacity: 1; white-space: pre;">Soudan 330M</text></g></g></g><g class="annotation" data-index="3" style="opacity: 1;"><g class="annotation-text-g" transform="rotate(0,1047,494.5)"><g class="cursor-pointer" transform="translate(1030,484)"><rect class="bg" x="0.5" y="0.5" width="34" height="20" style="stroke-width: 1px; stroke: rgb(0, 0, 0); stroke-opacity: 0; fill: rgb(0, 0, 0); fill-opacity: 0;"/><text class="annotation-text" text-anchor="middle" x="17.5625" y="16" style="font-family: Arial; font-size: 16px; fill: rgb(255, 255, 255); fill-opacity: 1; white-space: pre;">17M</text></g></g></g><g class="annotation" data-index="4" style="opacity: 1;"><g class="annotation-text-g" transform="rotate(0,184.5,391.95)"><g class="cursor-pointer" transform="translate(105,381)"><rect class="bg" x="0.5" y="0.5" width="158" height="20" style="stroke-width: 1px; stroke: rgb(0, 0, 0); stroke-opacity: 0; fill: rgb(0, 0, 0); fill-opacity: 0;"/><text class="annotation-text" text-anchor="middle" x="79.40625" y="16" style="font-family: Arial; font-size: 16px; fill: rgb(255, 255, 255); fill-opacity: 1; white-space: pre;">Soudan du Sud 196M</text></g></g></g><g class="annotation" data-index="5" style="opacity: 1;"><g class="annotation-text-g" transform="rotate(0,1047,476.9)"><g class="cursor-pointer" transform="translate(1030,466)"><rect class="bg" x="0.5" y="0.5" width="34" height="20" style="stroke-width: 1px; stroke: rgb(0, 0, 0); stroke-opacity: 0; fill: rgb(0, 0, 0); fill-opacity: 0;"/><text class="annotation-text" text-anchor="middle" x="17.5625" y="16" style="font-family: Arial; font-size: 16px; fill: rgb(255, 255, 255); fill-opacity: 1; white-space: pre;">48M</text></g></g></g><g class="annotation" data-index="6" style="opacity: 1;"><g class="annotation-text-g" transform="rotate(0,214,352.66999999999996)"><g class="cursor-pointer" transform="translate(164,342)"><rect class="bg" x="0.5" y="0.5" width="99" height="20" style="stroke-width: 1px; stroke: rgb(0, 0, 0); stroke-opacity: 0; fill: rgb(0, 0, 0); fill-opacity: 0;"/><text class="annotation-text" text-anchor="middle" x="50.59375" y="16" style="font-family: Arial; font-size: 16px; fill: rgb(255, 255, 255); fill-opacity: 1; white-space: pre;">Yémen 264M</text></g></g></g><g class="annotation" data-index="7" style="opacity: 1;"><g class="annotation-text-g" transform="rotate(0,1430.5,237.42000000000002)"><g class="cursor-pointer" transform="translate(1409,227)"><rect class="bg" x="0.5" y="0.5" width="43" height="20" style="stroke-width: 1px; stroke: rgb(0, 0, 0); stroke-opacity: 0; fill: rgb(0, 0, 0); fill-opacity: 0;"/><text class="annotation-text" text-anchor="middle" x="22.015625" y="16" style="font-family: Arial; font-size: 16px; fill: rgb(255, 255, 255); fill-opacity: 1; white-space: pre;">465M</text></g></g></g><g class="annotation" data-index="8" style="opacity: 1;"><g class="annotation-text-g" transform="rotate(0,211,165.2)"><g class="cursor-pointer" transform="translate(158,154)"><rect class="bg" x="0.5" y="0.5" width="105" height="21" style="stroke-width: 1px; stroke: rgb(0, 0, 0); stroke-opacity: 0; fill: rgb(0, 0, 0); fill-opacity: 0;"/><text class="annotation-text" text-anchor="middle" x="53.15625" y="17" style="font-family: Arial; font-size: 16px; fill: rgb(255, 255, 255); fill-opacity: 1; white-space: pre;">Éthiopie 591M</text></g></g></g><g class="annotation" data-index="9" style="opacity: 1;"><g class="annotation-text-g" transform="rotate(0,1051.5,387.97)"><g class="cursor-pointer" transform="translate(1030,377)"><rect class="bg" x="0.5" y="0.5" width="43" height="20" style="stroke-width: 1px; stroke: rgb(0, 0, 0); stroke-opacity: 0; fill: rgb(0, 0, 0); fill-opacity: 0;"/><text class="annotation-text" text-anchor="middle" x="22.015625" y="16" style="font-family: Arial; font-size: 16px; fill: rgb(255, 255, 255); fill-opacity: 1; white-space: pre;">203M</text></g></g></g><g class="annotation" data-index="10" style="opacity: 1;"><g class="annotation-text-g" transform="rotate(0,364.5,70.99999999999997)"><g class="cursor-pointer" transform="translate(200,52)"><rect class="bg" x="0.5" y="0.5" width="328" height="36" style="stroke-width: 1px; stroke: rgb(0, 0, 0); stroke-opacity: 0; fill: rgb(0, 0, 0); fill-opacity: 0;"/><text class="annotation-text" text-anchor="middle" x="165" y="29" style="font-family: Arial; font-size: 30px; fill: rgb(255, 255, 255); fill-opacity: 1; white-space: pre;">Aid Received Over Time</text></g></g></g></g></svg>